<svg width="420" height="287" viewBox="0 0 420 287" fill="none" xmlns="http://www.w3.org/2000/svg">
    <path d="M356.58 20.8345C355.238 17.5333 353.683 14.3128 351.886 11.2236C349.675 7.40752 346.98 3.67223 343.113 1.55218C333.088 -3.97005 323.962 6.29704 323.114 15.7868C322.639 21.1071 323.962 26.4275 325.769 31.455C329.777 42.6408 336.117 52.8272 342.558 62.8217C345.142 66.8296 347.777 70.8577 351.038 74.3407C354.46 77.9952 358.307 80.2061 362.759 82.2959C363.839 76.5617 363.698 70.2217 363.768 64.3865C363.829 58.1778 363.577 51.9489 362.829 45.7805C361.8 37.2498 359.811 28.7898 356.58 20.8447V20.8345Z" fill="#AD3831"/>
    <path d="M232.043 65.6994C227.298 66.083 222.634 67.244 218.353 69.364C211.165 72.9277 201.575 77.3597 199.424 85.9105C198.667 88.9291 199.01 92.0991 199.455 95.1782C200.262 100.771 201.403 106.324 202.867 111.775C227.621 101.74 252.234 91.3419 276.685 80.5902C267.317 74.7348 257.494 69.2732 246.722 66.83C241.967 65.7498 236.959 65.3056 232.043 65.6994Z" fill="#AD3831"/>
    <path d="M356.319 96.7619C350.595 77.2877 326.719 69.3526 308.698 75.5209C284.136 83.7185 260.826 95.1163 236.98 105.161C206.108 118.094 175.418 131.48 145.03 145.614C135.46 149.854 124.425 155.699 113.926 150.763C95.6431 142.908 79.7326 129.663 60.006 125.161C51.5157 123.353 41.2284 124.01 34.9288 130.693C30.0123 136.064 31.4459 143.958 32.6977 150.419C35.8172 163.665 40.5116 176.516 46.0238 188.964C51.233 186.097 56.3313 183.533 61.2377 181.271C61.379 181.211 61.5002 181.15 61.6516 181.09C65.2355 179.303 68.9304 177.728 72.686 176.435C82.5896 172.66 91.1203 170.57 97.2079 170.57C105.163 170.57 108.828 174.053 110.514 176.971C112.503 180.413 112.422 184.229 110.908 188.207C110.312 191.407 108.717 194.456 106.536 196.839C96.0772 208.973 82.3877 217.585 69.3645 226.65C86.6278 238.23 107.929 240.734 128.221 239.835C145.404 238.826 163.525 237.392 179.355 230.588C185.321 215.192 186.533 198.07 194.508 183.472C203.019 174.558 214.538 169.248 225.421 163.836C244.854 155.699 264.167 145.402 285.57 143.908C293.03 142.929 303.792 147.048 302.136 156.255C297.442 173.296 288.174 188.691 280.381 204.451C309.758 191.023 344.305 180.766 362.669 152.065C375.48 134.701 361.73 114.237 356.309 96.772L356.319 96.7619ZM184.16 176.163C182.151 178.576 179.113 180.201 175.024 180.201C165.13 180.201 161.355 170.752 163.646 163.493C164.434 160.798 166.069 158.375 168.634 156.81C176.235 150.783 188.562 158.062 187.825 167.491C187.966 170.843 186.472 173.902 184.16 176.163ZM230.095 154.246C228.57 160.182 223.19 162.807 217.93 162.372C215.991 162.272 214.306 161.807 212.872 161.06C212.852 161.06 212.832 161.04 212.821 161.03C211.449 160.303 210.298 159.324 209.379 158.163C209.086 157.84 208.783 157.527 208.531 157.153C203.695 150.924 206.502 140.627 213.72 137.598C223.543 133.459 235.758 144.18 230.105 154.246H230.095ZM255.071 145.432C239.009 145.432 239.039 120.506 255.071 120.506C271.103 120.506 271.103 145.432 255.071 145.432ZM290.648 131.692C274.586 131.692 274.616 106.766 290.648 106.766C306.679 106.766 306.679 131.692 290.648 131.692Z" fill="#AD3831"/>
    <path d="M374.46 123.445C378.215 119.043 381.011 113.672 381.617 107.918C382.223 102.164 380.456 96.0356 376.287 92.0176C372.329 88.2116 365.111 85.3142 359.649 85.4353C360.285 91.6037 364.182 98.62 366.474 104.425C367.282 106.464 375.308 122.435 374.439 123.445H374.46Z" fill="#AD3831"/>
    <path d="M391.783 203.656C393.59 206.129 395.71 208.35 398.284 209.975C402.393 212.57 407.885 213.418 412.136 211.056C415.003 209.471 417.012 206.613 418.173 203.544C421.08 195.862 419.051 187.19 415.972 179.578C411.802 169.29 405.796 159.871 398.991 151.139C392.793 143.173 385.211 132.2 376.821 126.597C374.207 137.712 376.519 152.936 377.993 164.223C379.578 176.347 382.778 188.361 388.845 199.052C389.734 200.627 390.703 202.182 391.783 203.645V203.656Z" fill="#AD3831"/>
    <path d="M295.483 152.279C289.103 149.099 282.015 150.957 275.433 152.219C254.536 157.337 234.96 166.676 215.87 176.377C208.389 180.597 199.132 184.817 196.971 194.034C191.065 213.892 186.512 234.144 180.465 253.971C178.385 261.341 175.538 268.791 175.993 276.615C178.163 284.773 188.006 287.165 195.396 286.519C216.607 284.268 236.596 271.588 247.004 252.851C262.44 226.411 275.696 198.769 289.244 171.35C291.637 165.131 295.796 159.144 295.483 152.279Z" fill="#AD3831"/>
    <path d="M103.416 181.071C107.212 187.633 87.2231 206.27 58.8043 222.665C30.3653 239.09 4.24828 247.086 0.462469 240.524C-3.33344 233.962 16.6556 215.325 45.0745 198.93C73.5135 182.505 99.6305 174.509 103.416 181.071Z" fill="#AD3831"/>
    <path d="M58.8043 222.665C30.3653 239.09 4.24828 247.086 0.462469 240.524C-3.33344 233.962 16.6556 215.325 45.0745 198.93C73.5135 182.505 99.6305 174.509 103.416 181.071C107.212 187.633 87.2231 206.27 58.8043 222.665Z" fill="#AD3831"/>
</svg>
